<mxfile host="app.diagrams.net" agent="Mozilla/5.0 (Macintosh; Intel Mac OS X 10_15_7) AppleWebKit/605.1.15 (KHTML, like Gecko) Version/18.3 Safari/605.1.15" version="26.0.16">
  <diagram name="Page-1" id="f4kgV9PZeQYn1y0VR7ba">
    <mxGraphModel dx="718" dy="802" grid="1" gridSize="10" guides="1" tooltips="1" connect="1" arrows="1" fold="1" page="1" pageScale="1" pageWidth="827" pageHeight="1169" math="0" shadow="0">
      <root>
        <mxCell id="0" />
        <mxCell id="1" parent="0" />
        <mxCell id="89nU1OnHmj5hL9-ugw1i-3" value="" style="rounded=0;whiteSpace=wrap;html=1;fillColor=none;" vertex="1" parent="1">
          <mxGeometry x="50" y="80" width="760" height="660" as="geometry" />
        </mxCell>
        <mxCell id="89nU1OnHmj5hL9-ugw1i-5" value="" style="endArrow=none;html=1;rounded=0;exitX=0;exitY=0.078;exitDx=0;exitDy=0;exitPerimeter=0;entryX=0.997;entryY=0.071;entryDx=0;entryDy=0;entryPerimeter=0;" edge="1" parent="1" source="89nU1OnHmj5hL9-ugw1i-3" target="89nU1OnHmj5hL9-ugw1i-3">
          <mxGeometry width="50" height="50" relative="1" as="geometry">
            <mxPoint x="310" y="230" as="sourcePoint" />
            <mxPoint x="600" y="118" as="targetPoint" />
          </mxGeometry>
        </mxCell>
        <mxCell id="89nU1OnHmj5hL9-ugw1i-6" value="StopWatch" style="text;html=1;align=center;verticalAlign=middle;whiteSpace=wrap;rounded=0;" vertex="1" parent="1">
          <mxGeometry x="295" y="90" width="60" height="30" as="geometry" />
        </mxCell>
        <mxCell id="89nU1OnHmj5hL9-ugw1i-7" value="Running&lt;div&gt;entry: count&lt;br&gt;&lt;div&gt;do: display time&amp;nbsp;&lt;/div&gt;&lt;/div&gt;" style="rounded=1;whiteSpace=wrap;html=1;shadow=0;comic=0;labelBackgroundColor=none;strokeWidth=1;fontFamily=Verdana;fontSize=12;align=center;arcSize=50;" vertex="1" parent="1">
          <mxGeometry x="330" y="210" width="100" height="55" as="geometry" />
        </mxCell>
        <mxCell id="89nU1OnHmj5hL9-ugw1i-8" value="" style="ellipse;whiteSpace=wrap;html=1;rounded=0;shadow=0;comic=0;labelBackgroundColor=none;strokeWidth=1;fillColor=#000000;fontFamily=Verdana;fontSize=12;align=center;" vertex="1" parent="1">
          <mxGeometry x="60" y="315" width="40" height="40" as="geometry" />
        </mxCell>
        <mxCell id="89nU1OnHmj5hL9-ugw1i-9" style="edgeStyle=orthogonalEdgeStyle;rounded=0;html=1;labelBackgroundColor=none;startArrow=none;startFill=0;startSize=5;endArrow=classicThin;endFill=1;endSize=5;jettySize=auto;orthogonalLoop=1;strokeWidth=1;fontFamily=Verdana;fontSize=12" edge="1" parent="1">
          <mxGeometry relative="1" as="geometry">
            <mxPoint x="100" y="340" as="sourcePoint" />
            <mxPoint x="150" y="340" as="targetPoint" />
          </mxGeometry>
        </mxCell>
        <mxCell id="89nU1OnHmj5hL9-ugw1i-11" value="Waiting&lt;div&gt;do: display nothing&amp;nbsp;&lt;/div&gt;" style="rounded=1;whiteSpace=wrap;html=1;shadow=0;comic=0;labelBackgroundColor=none;strokeWidth=1;fontFamily=Verdana;fontSize=12;align=center;arcSize=50;" vertex="1" parent="1">
          <mxGeometry x="150" y="315" width="100" height="55" as="geometry" />
        </mxCell>
        <mxCell id="89nU1OnHmj5hL9-ugw1i-14" value="" style="endArrow=classic;html=1;rounded=0;entryX=0;entryY=0.5;entryDx=0;entryDy=0;" edge="1" parent="1" target="89nU1OnHmj5hL9-ugw1i-7">
          <mxGeometry width="50" height="50" relative="1" as="geometry">
            <mxPoint x="200" y="315" as="sourcePoint" />
            <mxPoint x="250" y="265" as="targetPoint" />
            <Array as="points">
              <mxPoint x="200" y="240" />
            </Array>
          </mxGeometry>
        </mxCell>
        <mxCell id="89nU1OnHmj5hL9-ugw1i-19" value="" style="ellipse;html=1;shape=endState;fillColor=#000000;strokeColor=light-dark(#000000,#FF9090);rounded=1;glass=0;align=center;verticalAlign=middle;fontFamily=Helvetica;fontSize=12;fontColor=default;fontStyle=1;" vertex="1" parent="1">
          <mxGeometry x="430" y="610" width="30" height="30" as="geometry" />
        </mxCell>
        <mxCell id="89nU1OnHmj5hL9-ugw1i-20" value="" style="endArrow=classic;html=1;rounded=0;fontFamily=Helvetica;fontSize=12;fontColor=default;fontStyle=1;entryX=0.5;entryY=0;entryDx=0;entryDy=0;" edge="1" parent="1" source="89nU1OnHmj5hL9-ugw1i-21" target="89nU1OnHmj5hL9-ugw1i-19">
          <mxGeometry width="50" height="50" relative="1" as="geometry">
            <mxPoint x="610" y="620" as="sourcePoint" />
            <mxPoint x="660" y="570" as="targetPoint" />
          </mxGeometry>
        </mxCell>
        <mxCell id="89nU1OnHmj5hL9-ugw1i-21" value="&lt;div&gt;Stop&lt;br&gt;&lt;/div&gt;&lt;div&gt;exit: count&lt;/div&gt;&lt;div&gt;do:display time&lt;/div&gt;" style="rounded=1;whiteSpace=wrap;html=1;shadow=0;comic=0;labelBackgroundColor=none;strokeWidth=1;fontFamily=Verdana;fontSize=12;align=center;arcSize=50;" vertex="1" parent="1">
          <mxGeometry x="380" y="510" width="130" height="60" as="geometry" />
        </mxCell>
        <mxCell id="89nU1OnHmj5hL9-ugw1i-22" value="&lt;h1 style=&quot;margin-top: 0px;&quot;&gt;Input elements:&lt;/h1&gt;&lt;div&gt;B1 drücken: Startet oder verändert die Anzeige der Zeitmessung&lt;/div&gt;&lt;div&gt;&lt;br&gt;&lt;/div&gt;&lt;div&gt;B2 drücken: stoppt die Messung der setzt die Stoppuhr zurück&lt;/div&gt;" style="text;html=1;whiteSpace=wrap;overflow=hidden;rounded=0;fontFamily=Helvetica;fontSize=12;fontColor=default;fontStyle=1;" vertex="1" parent="1">
          <mxGeometry x="210" y="840" width="180" height="170" as="geometry" />
        </mxCell>
        <mxCell id="89nU1OnHmj5hL9-ugw1i-23" value="&lt;h1 style=&quot;margin-top: 0px;&quot;&gt;Output elements:&lt;/h1&gt;&lt;div&gt;Anzeige der laufenden Zeit:&lt;span style=&quot;font-weight: normal;&quot;&gt;&amp;nbsp;Stoppuhr zählt weiter&lt;/span&gt;&lt;/div&gt;&lt;div&gt;&lt;br&gt;&lt;/div&gt;&lt;div&gt;Anzeige der Zwischenzeit: &lt;span style=&quot;font-weight: normal;&quot;&gt;Zeit wird eingefroren aber interne Messung läuft weiter&amp;nbsp;&lt;/span&gt;&lt;/div&gt;&lt;div&gt;&amp;nbsp;&lt;/div&gt;&lt;div&gt;Anzeige der Endzeit: &lt;span style=&quot;font-weight: normal;&quot;&gt;Zeitmessung wird beendet und Endzeit wird angezeigt&lt;/span&gt;&lt;/div&gt;&lt;div&gt;&amp;nbsp;&lt;/div&gt;&lt;div&gt;Idl-Zustand: &lt;span style=&quot;font-weight: normal;&quot;&gt;Stoppuhr zurückgesetzt, keine Zeit wird &lt;/span&gt;&lt;span style=&quot;font-weight: 400;&quot;&gt;angezeit&lt;/span&gt;&lt;/div&gt;&lt;div&gt;&lt;br&gt;&lt;/div&gt;" style="text;html=1;whiteSpace=wrap;overflow=hidden;rounded=0;fontFamily=Helvetica;fontSize=12;fontColor=default;fontStyle=1;" vertex="1" parent="1">
          <mxGeometry x="410" y="840" width="360" height="220" as="geometry" />
        </mxCell>
        <mxCell id="89nU1OnHmj5hL9-ugw1i-24" value="Start" style="text;html=1;align=center;verticalAlign=middle;whiteSpace=wrap;rounded=0;fontFamily=Helvetica;fontSize=12;fontColor=default;fontStyle=0;" vertex="1" parent="1">
          <mxGeometry x="90" y="340" width="60" height="30" as="geometry" />
        </mxCell>
        <mxCell id="89nU1OnHmj5hL9-ugw1i-25" value="B1 pressed" style="text;html=1;align=center;verticalAlign=middle;whiteSpace=wrap;rounded=0;fontFamily=Helvetica;fontSize=12;fontColor=default;fontStyle=0;" vertex="1" parent="1">
          <mxGeometry x="210" y="210" width="60" height="30" as="geometry" />
        </mxCell>
        <mxCell id="89nU1OnHmj5hL9-ugw1i-28" value="" style="endArrow=classic;html=1;rounded=0;fontFamily=Helvetica;fontSize=12;fontColor=default;fontStyle=1;" edge="1" parent="1">
          <mxGeometry width="50" height="50" relative="1" as="geometry">
            <mxPoint x="430" y="238.82000000000005" as="sourcePoint" />
            <mxPoint x="570" y="239" as="targetPoint" />
          </mxGeometry>
        </mxCell>
        <mxCell id="89nU1OnHmj5hL9-ugw1i-29" value="B1 pressed again" style="text;html=1;align=center;verticalAlign=middle;whiteSpace=wrap;rounded=0;fontFamily=Helvetica;fontSize=12;fontColor=default;fontStyle=0;" vertex="1" parent="1">
          <mxGeometry x="470" y="200" width="60" height="30" as="geometry" />
        </mxCell>
        <mxCell id="89nU1OnHmj5hL9-ugw1i-30" value="Zwischenzeit&lt;div&gt;&lt;div&gt;do:display time&lt;/div&gt;&lt;/div&gt;" style="rounded=1;whiteSpace=wrap;html=1;shadow=0;comic=0;labelBackgroundColor=none;strokeWidth=1;fontFamily=Verdana;fontSize=12;align=center;arcSize=50;" vertex="1" parent="1">
          <mxGeometry x="570" y="210" width="100" height="55" as="geometry" />
        </mxCell>
        <mxCell id="89nU1OnHmj5hL9-ugw1i-33" value="" style="endArrow=classic;html=1;rounded=0;fontFamily=Helvetica;fontSize=12;fontColor=default;fontStyle=1;" edge="1" parent="1" target="89nU1OnHmj5hL9-ugw1i-21">
          <mxGeometry width="50" height="50" relative="1" as="geometry">
            <mxPoint x="380" y="265" as="sourcePoint" />
            <mxPoint x="480" y="595" as="targetPoint" />
          </mxGeometry>
        </mxCell>
        <mxCell id="89nU1OnHmj5hL9-ugw1i-34" value="" style="endArrow=classic;html=1;rounded=0;fontFamily=Helvetica;fontSize=12;fontColor=default;fontStyle=1;entryX=0.632;entryY=-0.004;entryDx=0;entryDy=0;entryPerimeter=0;" edge="1" parent="1" target="89nU1OnHmj5hL9-ugw1i-21">
          <mxGeometry width="50" height="50" relative="1" as="geometry">
            <mxPoint x="610" y="265" as="sourcePoint" />
            <mxPoint x="655" y="510" as="targetPoint" />
          </mxGeometry>
        </mxCell>
        <mxCell id="89nU1OnHmj5hL9-ugw1i-35" value="&lt;span style=&quot;font-weight: normal;&quot;&gt;B2 pressed&lt;/span&gt;" style="text;html=1;align=center;verticalAlign=middle;whiteSpace=wrap;rounded=0;fontFamily=Helvetica;fontSize=12;fontColor=default;fontStyle=1;" vertex="1" parent="1">
          <mxGeometry x="400" y="355" width="60" height="30" as="geometry" />
        </mxCell>
        <mxCell id="89nU1OnHmj5hL9-ugw1i-36" value="&lt;span style=&quot;font-weight: normal;&quot;&gt;B2 pressed&lt;/span&gt;" style="text;html=1;align=center;verticalAlign=middle;whiteSpace=wrap;rounded=0;fontFamily=Helvetica;fontSize=12;fontColor=default;fontStyle=1;" vertex="1" parent="1">
          <mxGeometry x="530" y="355" width="60" height="30" as="geometry" />
        </mxCell>
        <mxCell id="89nU1OnHmj5hL9-ugw1i-37" value="" style="endArrow=classic;html=1;rounded=0;fontFamily=Helvetica;fontSize=12;fontColor=default;fontStyle=1;entryX=0.602;entryY=0.932;entryDx=0;entryDy=0;entryPerimeter=0;" edge="1" parent="1" target="89nU1OnHmj5hL9-ugw1i-11">
          <mxGeometry width="50" height="50" relative="1" as="geometry">
            <mxPoint x="380" y="540" as="sourcePoint" />
            <mxPoint x="290" y="320" as="targetPoint" />
          </mxGeometry>
        </mxCell>
        <mxCell id="89nU1OnHmj5hL9-ugw1i-38" value="&lt;span style=&quot;font-weight: normal;&quot;&gt;B2 pressed&lt;/span&gt;&lt;div&gt;&lt;span style=&quot;font-weight: 400;&quot;&gt;again&lt;/span&gt;&lt;br&gt;&lt;/div&gt;" style="text;html=1;align=center;verticalAlign=middle;whiteSpace=wrap;rounded=0;fontFamily=Helvetica;fontSize=12;fontColor=default;fontStyle=1;" vertex="1" parent="1">
          <mxGeometry x="230" y="440" width="60" height="30" as="geometry" />
        </mxCell>
      </root>
    </mxGraphModel>
  </diagram>
</mxfile>
